<?xml version="1.0" encoding="utf-8"?>
<!-- Generator: Adobe Illustrator 25.4.1, SVG Export Plug-In . SVG Version: 6.00 Build 0)  -->
<svg version="1.1" id="Layer_1" xmlns="http://www.w3.org/2000/svg" xmlns:xlink="http://www.w3.org/1999/xlink" x="0px" y="0px"
	 viewBox="0 0 800 600" style="enable-background:new 0 0 800 600;" xml:space="preserve">
<style type="text/css">
	.st0{clip-path:url(#SVGID_00000044136036442454569110000013384255529065596607_);}
	
		.st1{clip-path:url(#SVGID_00000073712612763647268310000005512023203373997445_);fill:none;stroke:#4D8A80;stroke-width:21;stroke-miterlimit:10;}
	.st2{fill:#4D8A80;}
	.st3{fill:#FCFDFF;}
	.st4{clip-path:url(#SVGID_00000021116531770570901070000011996229716782675626_);fill:#FCFDFF;}
	.st5{clip-path:url(#SVGID_00000096060946390589406640000008766050880264057472_);fill:#FCFDFF;}
	.st6{fill:none;}
	.st7{fill:#857484;}
	.st8{font-family:'MyriadPro-Regular';}
	.st9{font-size:274.6626px;}
	.st10{letter-spacing:13;}
</style>
<g>
	<g>
		<defs>
			<path id="SVGID_1_" d="M535.89,421.94H415.63V119.59h120.27c0,13.72,0,27.43,0,41.15C535.89,247.8,535.89,334.87,535.89,421.94z"
				/>
		</defs>
		<clipPath id="SVGID_00000146466311278976055380000018224763327740119441_">
			<use xlink:href="#SVGID_1_"  style="overflow:visible;"/>
		</clipPath>
		<g style="clip-path:url(#SVGID_00000146466311278976055380000018224763327740119441_);">
			<g>
				<g>
					<defs>
						
							<rect id="SVGID_00000013894920223429473670000006866616675433091203_" x="433.39" y="108.66" width="192.78" height="102.92"/>
					</defs>
					<clipPath id="SVGID_00000092447484069122832590000011248577530579900324_">
						<use xlink:href="#SVGID_00000013894920223429473670000006866616675433091203_"  style="overflow:visible;"/>
					</clipPath>
					
						<path style="clip-path:url(#SVGID_00000092447484069122832590000011248577530579900324_);fill:none;stroke:#4D8A80;stroke-width:21;stroke-miterlimit:10;" d="
						M594.98,212.62c1.21-83.15-129.41-83.16-128.18,0.01C465.59,295.78,596.21,295.78,594.98,212.62z"/>
				</g>
				<rect x="456.26" y="211.23" class="st2" width="21.07" height="179.18"/>
			</g>
			<path class="st2" d="M481.52,311.8c-4.31-14.49,20.18-35.51,30.49-36.52C512.23,285.05,494.64,314.13,481.52,311.8z"/>
			<path class="st2" d="M451.78,291.99c4.31-14.49-20.18-35.51-30.49-36.52l0,0C421.07,265.24,438.67,294.31,451.78,291.99z"/>
			<path class="st2" d="M481.54,311.73c4.17-14.72,37.99-18.26,45.59-13.48C520.77,307.34,491.23,320.6,481.54,311.73z"/>
		</g>
	</g>
	<path id="XMLID_00000137125864681101847630000008228006418074019201_" class="st3" d="M477.31,219.64"/>
	<path id="XMLID_00000093154313868243492390000005211703997990884754_" class="st3" d="M480.86,220.79"/>
	<path id="XMLID_00000000202972653553063270000000557368392096105402_" class="st3" d="M477.32,215.47"/>
	<path class="st3" d="M477.32,322.29"/>
	<g>
		<defs>
			<rect id="SVGID_00000148640479584170743200000000767465070227604906_" x="456.2" y="319.01" width="21.14" height="7.19"/>
		</defs>
		<clipPath id="SVGID_00000053507592260677888860000003319851407494181286_">
			<use xlink:href="#SVGID_00000148640479584170743200000000767465070227604906_"  style="overflow:visible;"/>
		</clipPath>
		<polyline style="clip-path:url(#SVGID_00000053507592260677888860000003319851407494181286_);fill:#FCFDFF;" points="
			477.34,322.26 448.3,326.73 449.4,319.74 477.35,318.66 		"/>
	</g>
	<g>
		<defs>
			<path id="SVGID_00000021087334947939225660000003591591948394698116_" d="M456.43,205.94c0.12-0.18,0.33-0.29,0.56-0.29
				l19.83,0.2c0.37,0,0.67,0.31,0.67,0.68l-0.14,13.59c0,0.37-0.31,0.67-0.68,0.66l-19.83-0.2c-0.37,0-0.67-0.31-0.67-0.68
				l0.14-13.59C456.31,206.18,456.35,206.05,456.43,205.94"/>
		</defs>
		<clipPath id="SVGID_00000075880619905040553780000006957713532843571106_">
			<use xlink:href="#SVGID_00000021087334947939225660000003591591948394698116_"  style="overflow:visible;"/>
		</clipPath>
		
			<polyline id="XMLID_00000075162732615062192550000015781539020427739830_" style="clip-path:url(#SVGID_00000075880619905040553780000006957713532843571106_);fill:#FCFDFF;" points="
			477.36,219.75 450.91,210.99 455.11,205.27 477.41,215.58 		"/>
	</g>
</g>
<rect x="45.17" y="195.06" class="st6" width="744.86" height="263"/>
<text transform="matrix(1 0 0 1 45.1706 390.0729)" class="st7 st8 st9 st10">hej in</text>
</svg>
